<?xml version="1.0" encoding="utf-8"?>
<!-- This is supposed to be the Stanford XR bunny/logo - stanfordxr.org -->
<!DOCTYPE svg PUBLIC "-//W3C//DTD SVG 1.1//EN" "http://www.w3.org/Graphics/SVG/1.1/DTD/svg11.dtd">
<svg version="1.1" id="Layer_1" xmlns="http://www.w3.org/2000/svg" xmlns:xlink="http://www.w3.org/1999/xlink" x="0px" y="0px"
	 width="640px" height="640px" viewBox="0 0 640 640" enable-background="new 0 0 640 640"
	 xml:space="preserve">
<!-- Pink paths -->
<polygon fill="#cf56ff" points="262.6359116888046,191.16 272.628649043506,191.16 282.63058230146896,191.16 292.63020487089364,191.16 302.62314740388655,191.16000000000003 312.62088184049225,191.15999999999997 322.63206914521754,191.16 332.62813240143123,191.16000000000003 342.62804922761904,191.16 352.6242711724657,191.16 362.6277578569834,191.16 372.62042752951265,191.16 382.6283821997339,191.16 392.11,191.68717633522115 392.11,201.6723670721054 392.11,211.68760846777514 392.10999999999996,221.67754440481775 392.11,231.67446081350104 392.11,241.68184216580528 392.10999999999996,251.68894702620673 392.11,261.676530024003 392.11,271.67515244723296 392.10999999999996,281.6846342487952 392.11,291.67674751567654 392.11,301.6839699838445 392.11,311.68081631325225 392.11,321.6797111410648 392.11,331.6853255796214 392.11,341.6762955439801 392.11,351.6804065081129 392.11000000000007,361.68126446864386 392.11,371.67870889785274 392.11000000000007,381.6879403358216 392.11,391.67681187167165 392.10999999999996,401.6877871894071 392.11,411.6835000914129 392.11,421.68239858028437 392.11,431.68057448691843 392.11,441.67885278788754 392.11000000000007,451.678071912891 392.11,461.6855153374381 392.11,471.6790372483842 392.11,481.67751287716976 392.11,491.6867859143582 392.11,501.67535862821137 392.11,511.6773856289071 392.11,521.6872777459612 390.42553841240704,530 380.41979567621246,530 370.419720981953,530 360.4356286531687,530 350.42899752140045,530 340.42441428065183,530 330.4273848079091,530 320.43525920847213,530 310.429751823094,530 300.42904687702656,530 290.42658136214754,530 280.42987488812764,530 270.42591666116107,530 262.63,527.7916635011788 262.63000000000005,517.7905112177099 262.63,507.80046904474165 262.63,497.7981437445759 262.63,487.7921284608242 262.63,477.7988275772333 262.63,467.80221007573755 262.63,457.80376627661934 262.63,447.7871143516354 262.63,437.8021402705156 262.63,427.7911110024223 262.63,417.78882317349644 262.63,407.7906969998509 262.63,397.79779904728684 262.63,387.804778743073 262.63,377.80159671035943 262.63,367.8061136509065 262.63,357.7881567627196 262.63,347.7943522409573 262.63,337.7940547502401 262.63,327.7889847841693 262.63,317.7982977706959 262.63,307.79914832368803 262.63,297.7898162562342 262.63,287.8044834638387 262.63,277.7874158756336 262.63,267.79665322001193 262.63,257.8005851516465 262.63,247.80263304623446 262.63,237.79645033466875 262.63,227.80424790875875 262.63,217.80121419841225 262.63,207.78989873234764 262.63,197.79542960473816 "/> 
<polygon fill="#cf56ff" points="219.21258059695364,357.9100000000001 229.20325235560537,357.91 239.21018960443516,357.91 249.20774743922775,357.91 259.21913742738343,357.91 269.21504997875195,357.9100000000001 279.21729675125266,357.90999999999997 289.2014806992903,357.91 299.2123332118945,357.91 309.21868361387226,357.91 319.210260291591,357.91 329.2112448815632,357.91 339.211882262656,357.91 349.20379466745607,357.91 359.2158798239423,357.91 369.2067243354787,357.9100000000001 379.21811191040734,357.91 389.20484382595697,357.91 399.2060306076578,357.90999999999997 409.20731782428845,357.90999999999997 419.2090236121346,357.91 429.2126271643699,357.91 439.22033396853743,357.90999999999997 445,362.1170720064803 445,372.120167099112 445,382.1302423052376 445,392.1281674526446 445,402.1201006195035 445,412.11885685482906 445,422.1226041566152 445,432.12612281658454 445,442.1282491064419 445,452.1166442937687 445,462.1202047219532 445,472.1251829350198 445,482.120560317803 445,492.11403351828454 445,502.11576126343306 440.7655774109761,507.88 430.7581566696508,507.88 420.7561562227074,507.88 410.75337036508415,507.88 400.7614470069666,507.88 390.7561028494041,507.88 380.7507590982388,507.88 370.7551796947978,507.87999999999994 360.7636218547891,507.88 350.75719398969176,507.87999999999994 340.75888594788614,507.88 330.76136822463764,507.87999999999994 320.75265241115767,507.88 310.7626168745601,507.88 300.7652635012828,507.88 290.74828150167025,507.88 280.7589364859159,507.88 270.76312062462694,507.88 260.75485787159994,507.88 250.75364193126185,507.88 240.75741474757672,507.88 230.75644272685895,507.88 220.75708033955976,507.88 219.21000000000004,499.42796818134065 219.21,489.43438520370717 219.21,479.4292661990114 219.20999999999998,469.4294172385125 219.21,459.42201957486117 219.21000000000004,449.4279698089795 219.21,439.42320264539137 219.21,429.43609015980127 219.21000000000004,419.4224327542619 219.20999999999998,409.4293490503949 219.21,399.4361001465333 219.20999999999998,389.4171733154936 219.21000000000004,379.4169845826276 219.21,369.4288764829934 219.21000000000004,359.41863604672955 "/> 
<polygon fill="#cf56ff" points="246.84735308527945,337.37 256.8383623379203,337.37000000000006 266.8303764487361,337.37 276.8490396610904,337.37 286.83115662447824,337.37 296.83184426193077,337.37 306.8376949610127,337.37000000000006 316.83477192406633,337.37 326.8341989735889,337.37 336.840940823571,337.37 346.8316857214746,337.37 356.8498190601782,337.37 366.83358037486676,337.37 376.8379400634766,337.37 386.8355250263214,337.37 396.83624227556834,337.37 406.8403819114179,337.37 407.89,346.31739680087225 407.89,356.31816623536173 407.89,366.320773092619 407.89,376.3209581843274 407.89,386.3199944097641 407.89,396.32378429226696 407.89,406.31757195042337 407.89,416.3203040876865 407.89,426.32038644633883 407.89,436.3211345769273 407.89,446.31149403508437 407.89,456.31868364602565 407.89,466.3260795462346 407.89000000000004,476.31441692723195 407.89,486.31259277437664 407.89,496.32160286358226 407.89,506.33021848515375 407.89,516.3241121457703 399.98584113196614,518.4199999999998 389.9813602629718,518.42 379.98665049712804,518.42 369.978265284033,518.42 359.97850908782425,518.42 349.98900160850076,518.42 339.9841632387992,518.42 329.98912004219426,518.42 319.98718116691407,518.42 309.9856829813663,518.42 299.99220982226984,518.42 289.98521328491586,518.42 279.99000638736766,518.42 269.9788007725082,518.42 259.98523650497,518.42 249.98482236048207,518.42 246.83999999999997,511.5711189751254 246.83999999999997,501.5701140414539 246.84,491.55927477338435 246.83999999999997,481.56360447498037 246.83999999999997,471.55967264303933 246.84,461.5693601375914 246.84,451.56624157768385 246.84,441.5728785984803 246.84,431.57388740955764 246.84,421.5677016130977 246.84,411.56502033190424 246.84,401.5677780665801 246.84,391.56831490308275 246.84,381.5729515298416 246.84,371.55709639496206 246.84,361.575901553423 246.84,351.55782095143775 246.84,341.5569527284187 "/> 
<polygon fill="#cf56ff" points="316.8360593307018,250.6421606659889 312.3512787069496,241.7204038232332 307.8576904947875,232.78112568595787 303.365913445263,223.84545056831956 298.8778889553426,214.91724057041282 294.3813438310993,205.9720801274447 289.89338723946634,197.0440052023679 285.4054085578487,188.11588633278444 280.90859532574933,179.1701925319332 276.4174373385344,170.2357489401733 271.93120396399377,161.31110208107674 267.4383529176673,152.37329041783656 262.9449368645812,143.43435476362646 258.4555301373762,134.50339502476533 253.95786771472038,125.55601189453701 249.47109578058124,116.63029365688563 244.97635346010327,107.68871960490941 240.48879144578945,98.76142962857199 235.99455514991658,89.82086223196238 231.5067233062748,80.89303547314776 238.3607788960033,78.95 248.36113616719607,78.95000000000002 258.358754867614,78.95 268.35542915398224,78.95 278.3547913456894,78.95 288.354639989071,78.95 298.35082438647305,78.95 308.36760773123007,78.95 316.84,80.46047063309234 316.84,90.46559081755295 316.84,100.4786895397614 316.84,110.46741391215873 316.84,120.47271847275074 316.84,130.4656615138054 316.84,140.46781264165378 316.84,150.46085273661012 316.8399999999999,160.4630307615764 316.84,170.47110387363875 316.8399999999999,180.4724941627177 316.84,190.47707913231568 316.84,200.46791040430836 316.84,210.47528197219106 316.84,220.47186499187336 316.84000000000003,230.4700664350483 316.84,240.47121838854258 316.84,250.4748568309471 "/> 
<polygon fill="#cf56ff" points="226.05934784650802,347.38 236.04626143511888,347.38 246.0541138985753,347.38 256.0402197881416,347.38 266.0424124643686,347.38 276.0531789418756,347.38 286.0436440433157,347.38 296.04454890692386,347.37999999999994 306.05079394431124,347.38 316.05677014267303,347.38 326.0583783836246,347.38 336.04273722476347,347.38 346.05498687053614,347.38 356.0413286844719,347.38 366.04412803642475,347.38 376.05796089147685,347.38 386.0487299607281,347.38 396.0586498618126,347.38 406.0426276368677,347.38 416.0450320933897,347.38 426.055193584002,347.38 430.79,352.634589691211 430.79,362.64781462490794 430.79,372.64810728004875 430.7900000000001,382.64778145276995 430.7900000000001,392.64216110779233 430.79,402.63758605771494 430.79,412.64338293651815 430.78999999999996,422.64530756432447 430.78999999999996,432.6366817911583 430.7900000000001,442.64185067920783 430.79,452.63698762084647 430.79,462.6385989044809 430.79,472.64515014896267 430.78999999999996,482.63410289833524 430.79,492.6321066504605 430.79,502.63246609807015 430.79,512.6468530762312 423.3974082495525,515.25 413.40024048668454,515.25 403.3902975990996,515.25 393.40125704796543,515.25 383.40053646889174,515.25 373.40109720287205,515.25 363.39595598107735,515.25 353.40482438927353,515.25 343.40506631879276,515.25 333.4042864807316,515.25 323.3982643299451,515.25 313.39780487726733,515.25 303.39869867585236,515.25 293.3908402577743,515.25 283.38780843620503,515.25 273.4072704630951,515.25 263.39413331819196,515.25 253.39669009793144,515.25 243.39564638473624,515.25 233.39716972162483,515.25 226.05,512.5962415127651 226.05,502.5980798896969 226.05,492.5884949834081 226.05,482.59671560543063 226.05,472.59083573521843 226.05,462.59546875670554 226.05,452.59222639715324 226.05,442.5961174957454 226.05000000000004,432.6059471855432 226.05,422.5994211806101 226.05,412.5983079045918 226.05,402.59396333922325 226.05,392.58690646709874 226.05,382.59662297997147 226.05,372.6026525600464 226.05,362.59200278873544 226.05,352.58809544444085 "/> 
<polygon fill="#cf56ff" points="254.61674036622045,195.82000000000002 264.61221873323865,195.82 274.6160111316585,195.82 284.6185581062242,195.82 294.60946353902017,195.82 304.6165232492409,195.81999999999996 314.6035567899546,195.82000000000002 324.6150132298193,195.82 334.60884629500686,195.82 344.6074547952518,195.82 354.6145068210061,195.82 364.6047362355888,195.82 374.60184844433536,195.82 384.61559433691,195.82 394.6136421729438,195.82 402.24,198.19994617561346 402.23999999999995,208.1914402194837 402.24,218.1851140073798 402.24,228.19101789272858 402.24,238.19787654005842 402.24,248.19112708382482 402.24,258.18777621507644 402.24,268.19737268551245 402.24,278.193046875 402.24,288.18218609167553 402.24,298.1821139736351 402.24,308.1912514937415 400.37341132521635,316.32 390.37729763736576,316.31999999999994 380.377250972155,316.32 370.3655431071623,316.32 360.3670268450182,316.32 350.37283313751874,316.32 340.3667794119898,316.32 330.3710934832134,316.32000000000005 320.37027427542876,316.32 310.36996877580737,316.32 300.36045657952116,316.32 290.3706479775541,316.32 280.3673803420426,316.32000000000005 270.37400757897035,316.32 260.37459595531317,316.32 254.61,312.0843827778084 254.61000000000004,302.08337370171677 254.61,292.07997931417077 254.61,282.07161167910846 254.61000000000004,272.07041814604446 254.61,262.0846096627559 254.61,252.0789776326149 254.61,242.08535037837856 254.61,232.0760826039171 254.61,222.07815127285022 254.61,212.07116616487502 254.61,202.0868394834036 "/> 
<polygon fill="#cf56ff" points="347.1137726509571,250.12216020941736 351.4434387520844,241.12485939585616 355.78209919761184,232.10886780561634 360.11752453680776,223.09959895661058 364.4571312033667,214.08164106341397 368.7930625822695,205.07132063413417 373.1270640408824,196.0650106927277 377.46774113748455,187.04482838294237 381.80088249471845,178.04030578278952 386.13384954789615,169.03614539671736 390.47436780937363,160.01629315566328 394.8097243210251,151.00716733434325 399.1477424785937,141.9925104562589 403.4818175782077,132.98604748452084 407.8136149005592,123.98431786790489 412.1530999679693,114.96661266489161 416.48698327452206,105.96054825041531 420.8284625880386,96.93869888669852 425.164945091414,87.92723318834935 429.5029632568359,78.91257629394532 420.3015466631413,78.42 410.2886082609105,78.42 400.2877505841237,78.42 390.3005474624946,78.41999999999999 380.3021320161992,78.42000000000002 370.2919282669458,78.42 360.294337260779,78.42 350.2985634166189,78.42 347.10999999999996,85.23063662740141 347.11,95.23616908865661 347.11,105.22611055861297 347.11,115.2297547152174 347.11,125.22706800122512 347.11,135.23926936784991 347.11,145.2377554637016 347.11,155.2349026811123 347.11,165.23393399745547 347.10999999999996,175.23697507322012 347.11,185.2444050389836 347.11,195.23915080929237 347.11,205.23950464854016 347.11,215.2267316099725 347.11,225.23071995692032 347.11,235.22961311938852 347.11,245.24486857851008 "/> 
<polygon fill="#cf56ff" points="407.8951966977119,400.54 417.8910101896152,400.54 427.8950980001454,400.54 437.8878927306168,400.54 447.89862720605976,400.54 457.8959194052639,400.53999999999996 467.8831351948576,400.5400000000001 477.88736947936104,400.54 487.88765077485397,400.5400000000001 497.8842598770169,400.53999999999996 507.8956154293853,400.53999999999996 517.8904585851496,400.54 521.71,406.7240024602413 521.71,416.7287424731069 521.71,426.7141424623967 521.71,436.7129573610079 521.71,446.7110057622753 521.71,456.7204985551341 521.71,466.72430690532116 521.71,476.7230316813758 521.71,486.730155118762 515.4894317732839,490.51 505.4930584523216,490.51 495.49023003730053,490.51 485.5011288560642,490.51 475.49710031660743,490.51 465.5085799166123,490.51 455.5004348182678,490.51000000000005 445.4941034894708,490.51 435.4971117818268,490.51 425.50274460250057,490.51 415.49043596807405,490.51 407.89,488.1266949235345 407.89,478.11808898606773 407.89,468.125699471189 407.89,458.1241070497481 407.89,448.126600837071 407.89,438.10897792023843 407.89000000000004,428.1147429563085 407.89,418.12746308506553 407.89,408.11391894839267 "/> 
<polygon fill="#cf56ff" points="434.87329188108447,391.07 444.8762509742129,391.07 454.870083658905,391.07 464.87265508804006,391.07 474.8734892357188,391.07 484.87220109870134,391.06999999999994 494.8614393230574,391.07 504.8706283715601,391.07 506.9700000000001,398.9673704783502 506.97,408.9776870105273 506.97,418.97613094610693 506.9700000000001,428.97152713064 506.97,438.96850041405673 506.97,448.96849611514625 506.97,458.97919230754053 506.97,468.97567588195204 506.97,478.96902183276836 506.97,488.98000578953383 505.880626627435,497.88 495.8820770326554,497.88 485.873346273792,497.88 475.86997292775663,497.88 465.8784070661742,497.88 455.8696265317546,497.88 445.8792818913196,497.88 435.8754647512967,497.88 434.87,488.8884441160629 434.87,478.89222023593265 434.87,468.8876404749243 434.87,458.8846616039291 434.87,448.89050853553897 434.87,438.89064652826374 434.87,428.89631881284754 434.87,418.88905281467333 434.87,408.8874587096576 434.87,398.88072022470874 "/> 
<polygon fill="#cf56ff" points="433.823676314354,397.12 443.81456759796475,397.12 453.8272770618648,397.12 463.8169847765337,397.12000000000006 473.8146159661806,397.12 483.812738492972,397.12 493.81306483566766,397.12 503.81341617584235,397.12 513.8258151245118,397.12 514.34,406.59106045168124 514.34,416.6004620147552 514.34,426.6000563901526 514.34,436.59975506586954 514.34,446.6074148630166 514.34,456.59714802586495 514.34,466.6049484788385 514.34,476.6000570477603 514.34,486.6030725251138 509.5740210734587,491.83000000000004 499.571390953064,491.83 489.5655201794163,491.8299999999999 479.578801743883,491.83 469.57683559515164,491.8299999999999 459.5738323404547,491.83 449.5601636946702,491.83 439.57848601502366,491.8299999999999 433.82,487.57651527116076 433.82,477.57407314890435 433.82,467.57816951435035 433.82,457.5705748315132 433.82,447.57722736310836 433.82,437.5774607587729 433.82,427.5755207249659 433.82,417.58318715571113 433.82,407.5719823677628 433.82,397.5849166937173 "/> 

<!-- Other stuff -->
<line fill="none" stroke="#000000" stroke-width="1.0" stroke-miterlimit="10" x1="343.16" y1="300" x2="318.95" y2="283.16"/>
<line fill="none" stroke="#000000" stroke-width="1.0" stroke-miterlimit="10" x1="318.95" y1="298.95" x2="340" y2="283.16"/>
<polygon fill="#393939" points="243.16,203.16 414.74,203.16 414.74,257.37 243.16,257.37"/>
<polygon fill="#818181" points="238.42,206.58 420.53,206.58 420.53,253.95 238.42,253.95"/>
</svg>